<mxfile host="app.diagrams.net" modified="2021-07-12T16:09:46.780Z" agent="5.0 (Macintosh; Intel Mac OS X 10_15_7) AppleWebKit/537.36 (KHTML, like Gecko) Chrome/91.0.4472.114 Safari/537.36" etag="c6Wvlmw1Wqp_eBeiH7ku" version="14.8.5" type="github">
  <diagram name="Page-1" id="12e1b939-464a-85fe-373e-61e167be1490">
    <mxGraphModel dx="946" dy="613" grid="1" gridSize="10" guides="1" tooltips="1" connect="1" arrows="1" fold="1" page="1" pageScale="1.5" pageWidth="1169" pageHeight="826" background="none" math="0" shadow="0">
      <root>
        <mxCell id="0" />
        <mxCell id="1" parent="0" />
        <mxCell id="5zBR_yFMB7YVqRJAYe8Z-5" value="" style="rounded=0;whiteSpace=wrap;html=1;" vertex="1" parent="1">
          <mxGeometry x="260" y="130" width="580" height="480" as="geometry" />
        </mxCell>
        <mxCell id="5zBR_yFMB7YVqRJAYe8Z-4" value="&lt;br&gt;用户&lt;br&gt;客户端" style="shape=actor;whiteSpace=wrap;html=1;fillColor=#eeeeee;strokeColor=#36393d;" vertex="1" parent="1">
          <mxGeometry x="100" y="310" width="70" height="100" as="geometry" />
        </mxCell>
        <mxCell id="5zBR_yFMB7YVqRJAYe8Z-15" style="edgeStyle=orthogonalEdgeStyle;rounded=0;orthogonalLoop=1;jettySize=auto;html=1;entryX=0.971;entryY=0.61;entryDx=0;entryDy=0;entryPerimeter=0;" edge="1" parent="1" source="5zBR_yFMB7YVqRJAYe8Z-7" target="5zBR_yFMB7YVqRJAYe8Z-4">
          <mxGeometry relative="1" as="geometry" />
        </mxCell>
        <mxCell id="5zBR_yFMB7YVqRJAYe8Z-16" value="http/websockt" style="edgeLabel;html=1;align=center;verticalAlign=middle;resizable=0;points=[];" vertex="1" connectable="0" parent="5zBR_yFMB7YVqRJAYe8Z-15">
          <mxGeometry x="0.1562" y="-2" relative="1" as="geometry">
            <mxPoint as="offset" />
          </mxGeometry>
        </mxCell>
        <mxCell id="5zBR_yFMB7YVqRJAYe8Z-7" value="AEProxy" style="rounded=0;whiteSpace=wrap;html=1;fillColor=#cdeb8b;strokeColor=#36393d;" vertex="1" parent="1">
          <mxGeometry x="290" y="190" width="50" height="360" as="geometry" />
        </mxCell>
        <mxCell id="5zBR_yFMB7YVqRJAYe8Z-14" value="http" style="edgeStyle=orthogonalEdgeStyle;rounded=0;orthogonalLoop=1;jettySize=auto;html=1;verticalAlign=middle;" edge="1" parent="1" source="5zBR_yFMB7YVqRJAYe8Z-8" target="5zBR_yFMB7YVqRJAYe8Z-7">
          <mxGeometry relative="1" as="geometry" />
        </mxCell>
        <mxCell id="5zBR_yFMB7YVqRJAYe8Z-8" value="logicsvr" style="rounded=0;whiteSpace=wrap;html=1;fillColor=#cce5ff;strokeColor=#36393d;" vertex="1" parent="1">
          <mxGeometry x="410" y="190" width="90" height="360" as="geometry" />
        </mxCell>
        <mxCell id="5zBR_yFMB7YVqRJAYe8Z-12" style="edgeStyle=orthogonalEdgeStyle;rounded=0;orthogonalLoop=1;jettySize=auto;html=1;" edge="1" parent="1" source="5zBR_yFMB7YVqRJAYe8Z-9" target="5zBR_yFMB7YVqRJAYe8Z-8">
          <mxGeometry relative="1" as="geometry" />
        </mxCell>
        <mxCell id="5zBR_yFMB7YVqRJAYe8Z-13" value="svrkit" style="edgeLabel;html=1;align=center;verticalAlign=middle;resizable=0;points=[];" vertex="1" connectable="0" parent="5zBR_yFMB7YVqRJAYe8Z-12">
          <mxGeometry x="0.0286" y="-1" relative="1" as="geometry">
            <mxPoint as="offset" />
          </mxGeometry>
        </mxCell>
        <mxCell id="5zBR_yFMB7YVqRJAYe8Z-9" value="Svrkit" style="rounded=0;whiteSpace=wrap;html=1;fillColor=#ffff88;strokeColor=#36393d;" vertex="1" parent="1">
          <mxGeometry x="560" y="190" width="90" height="360" as="geometry" />
        </mxCell>
        <mxCell id="5zBR_yFMB7YVqRJAYe8Z-11" value="专有协议" style="edgeStyle=orthogonalEdgeStyle;rounded=0;orthogonalLoop=1;jettySize=auto;html=1;" edge="1" parent="1" source="5zBR_yFMB7YVqRJAYe8Z-10" target="5zBR_yFMB7YVqRJAYe8Z-9">
          <mxGeometry relative="1" as="geometry" />
        </mxCell>
        <mxCell id="5zBR_yFMB7YVqRJAYe8Z-10" value="DB&lt;br&gt;&lt;br&gt;Redis&lt;br&gt;&lt;br&gt;" style="rounded=0;whiteSpace=wrap;html=1;fillColor=#ffcccc;strokeColor=#36393d;" vertex="1" parent="1">
          <mxGeometry x="720" y="190" width="70" height="360" as="geometry" />
        </mxCell>
      </root>
    </mxGraphModel>
  </diagram>
</mxfile>
